<?xml version="1.0" encoding="UTF-8"?>
<svg id="Icons" xmlns="http://www.w3.org/2000/svg" viewBox="0 0 99.01 99">
  <path d="M16.08,49c0,18.14,14.75,32.89,32.89,32.89v-4c-15.93,0-28.89-12.96-28.89-28.89s12.96-28.89,28.89-28.89v-4c-18.14,0-32.89,14.75-32.89,32.89Z"/>
  <path d="M22.11,49c0,14.81,12.05,26.86,26.86,26.86v-4c-12.61,0-22.86-10.26-22.86-22.86s10.26-22.86,22.86-22.86v-4c-14.81,0-26.86,12.05-26.86,26.86Z"/>
  <path d="M58.06,22.24l5.65-7.2-3.15-2.47-9.02,11.49,7.94,11.55,3.3-2.27-4.89-7.1c11.63,1.06,20.77,10.86,20.77,22.76,0,12.61-10.26,22.86-22.86,22.86v4c14.81,0,26.86-12.05,26.86-26.86s-10.85-25.61-24.61-26.76Z"/>
  <path d="M28.14,49c0,11.49,9.35,20.84,20.84,20.84v-4c-9.28,0-16.84-7.55-16.84-16.84s7.55-16.84,16.84-16.84v-4c-11.49,0-20.84,9.35-20.84,20.84Z"/>
</svg>