<?xml version="1.0" encoding="UTF-8"?>
<svg id="Icons" xmlns="http://www.w3.org/2000/svg" viewBox="0 0 99.01 99">
  <path d="M54.6,58.07c-.63.54-1.67.81-3.13.81h-5.95c1.05-.88,1.58-2.26,1.58-4.16v-3.46h7.48v-3.46h-7.48v-3.68c0-1.66.35-2.89,1.05-3.68s1.55-1.18,2.56-1.18,1.8.26,2.38.77c.58.51.95,1.25,1.09,2.21h5.08c-.7-5.11-3.5-7.66-8.4-7.66-2.69,0-4.84.8-6.48,2.41-1.63,1.6-2.45,3.98-2.45,7.13v3.68h-3.63v3.46h3.63v3.81c0,1.31-.22,2.28-.66,2.89-.44.61-1.2.92-2.28.92h-1.4v4.68h13.92c3.38,0,5.89-.7,7.53-2.1,1.46-1.28,2.25-3.27,2.36-5.95h-5.65c-.15,1.17-.53,2.02-1.16,2.56Z"/>
  <path d="M49.51,7.46C26.56,7.46,7.89,26.13,7.89,49.07s18.67,41.61,41.61,41.61,41.61-18.67,41.61-41.61S72.45,7.46,49.51,7.46ZM49.51,86.68c-20.74,0-37.61-16.87-37.61-37.61S28.77,11.46,49.51,11.46s37.61,16.87,37.61,37.61-16.87,37.61-37.61,37.61Z"/>
  <path d="M49.51,13.4c-19.67,0-35.67,16-35.67,35.67s16,35.67,35.67,35.67,35.67-16,35.67-35.67S69.17,13.4,49.51,13.4ZM49.51,80.74c-17.46,0-31.67-14.21-31.67-31.67s14.21-31.67,31.67-31.67,31.67,14.21,31.67,31.67-14.21,31.67-31.67,31.67Z"/>
  <path d="M49.51,19.35c-16.39,0-29.72,13.33-29.72,29.72s13.33,29.72,29.72,29.72,29.72-13.33,29.72-29.72-13.33-29.72-29.72-29.72ZM49.51,74.78c-14.18,0-25.72-11.54-25.72-25.72s11.54-25.72,25.72-25.72,25.72,11.54,25.72,25.72-11.54,25.72-25.72,25.72Z"/>
</svg>