<?xml version="1.0" encoding="UTF-8"?>
<svg id="Icons" xmlns="http://www.w3.org/2000/svg" viewBox="0 0 99.01 99">
  <path d="M77.17,78.62v-32.65h-4v32.65h-2.06v-32.65h-4v32.65h-2.05v-32.65h-4v32.65h-4.74v-26.67h-16.11v26.67h-4.76v-21.22h-16.11v21.22h-4.06V17.99h-4v64.63h74.44v-4h-8.55ZM23.34,78.62v-17.22h8.11v17.22h-8.11ZM44.2,78.62v-22.67h8.11v22.67h-8.11Z"/>
  <polygon points="28.09 41.98 67.04 29.51 63.22 36.92 66.78 38.75 73.72 25.27 60.25 18.34 58.41 21.89 65.82 25.7 26.87 38.17 28.09 41.98"/>
</svg>