<?xml version="1.0" encoding="UTF-8"?>
<svg id="Icons" xmlns="http://www.w3.org/2000/svg" viewBox="0 0 99.01 99">
  <rect x="22.74" y="28.84" width="26.52" height="4"/>
  <rect x="22.74" y="22.79" width="26.52" height="4"/>
  <rect x="22.74" y="34.9" width="26.52" height="4"/>
  <path d="M85.79,37.88h-20.79v-20.81c0-3.43-2.79-6.21-6.21-6.21H13.22c-3.43,0-6.21,2.79-6.21,6.21v27.55c0,3.43,2.79,6.21,6.21,6.21h2.74l-.09,10.29,18.14-9.06v19.58c0,3.43,2.79,6.21,6.21,6.21h22.31l20.61,10.29-.09-10.29h2.74c3.43,0,6.21-2.79,6.21-6.21v-27.55c0-3.43-2.79-6.21-6.21-6.21ZM13.22,46.83c-1.22,0-2.21-.99-2.21-2.21v-27.55c0-1.22.99-2.21,2.21-2.21h45.57c1.22,0,2.21.99,2.21,2.21v27.55c0,1.22-.99,2.21-2.21,2.21h-23.26l-15.61,7.79.07-7.79h-6.78ZM88.01,71.65c0,1.22-.99,2.21-2.21,2.21h-6.78l.07,7.79-15.61-7.79h-23.26c-1.22,0-2.21-.99-2.21-2.21v-20.81h20.79c3.43,0,6.21-2.79,6.21-6.21v-2.74h20.79c1.22,0,2.21.99,2.21,2.21v27.55Z"/>
</svg>