<?xml version="1.0" encoding="UTF-8"?>
<svg id="Icons" xmlns="http://www.w3.org/2000/svg" viewBox="0 0 99.01 99">
  <polygon points="95.2 47.65 77.46 29.97 59.72 47.65 62.54 50.49 75.33 37.74 75.33 85.05 79.33 85.05 79.33 37.49 92.37 50.49 95.2 47.65"/>
  <polygon points="3.8 47.65 6.63 50.49 19.41 37.74 19.41 85.05 23.41 85.05 23.41 37.49 36.45 50.49 39.28 47.65 21.54 29.97 3.8 47.65"/>
  <polygon points="64.54 31.65 67.36 28.81 49.62 11.13 31.88 28.81 34.71 31.65 41.44 24.93 41.44 66.07 45.44 66.07 45.44 20.94 47.5 18.9 47.5 66.07 51.5 66.07 51.5 18.65 53.55 20.7 53.55 66.07 57.55 66.07 57.55 24.69 64.54 31.65"/>
</svg>