<?xml version="1.0" encoding="UTF-8"?>
<svg id="Icons" xmlns="http://www.w3.org/2000/svg" viewBox="0 0 99.01 99">
  <path d="M58.23,6.96c-3.59,0-6.76,1.78-8.71,4.5-1.94-2.72-5.12-4.5-8.71-4.5H6.92v61.04h33.89c3.7,0,6.71,3.01,6.71,6.71h4c0-3.64,2.96-6.65,6.6-6.71l-.06-4c-2.47.04-4.74.93-6.53,2.38V17.67c0-3.7,3.01-6.71,6.71-6.71h3.81v79.06h4V10.96h2.06v79.06h4V10.96h2.05v78.88h4V10.96h9.97v53.04h-6.01v4h10.01V6.96h-33.89ZM47.52,66.37c-1.84-1.48-4.17-2.37-6.71-2.37H10.92V10.96h29.89c3.7,0,6.71,3.01,6.71,6.71v48.7Z"/>
</svg>