<?xml version="1.0" encoding="UTF-8"?>
<svg xmlns="http://www.w3.org/2000/svg" xmlns:xlink="http://www.w3.org/1999/xlink" width="318.33pt" height="154.06pt" viewBox="0 0 318.33 154.06" version="1.2">
<defs>
<clipPath id="clip1">
  <path d="M 0.632812 0 L 151 0 L 151 147 L 0.632812 147 Z M 0.632812 0 "/>
</clipPath>
<clipPath id="clip2">
  <path d="M 233 1 L 317.03125 1 L 317.03125 148 L 233 148 Z M 233 1 "/>
</clipPath>
<clipPath id="clip3">
  <path d="M 158 0 L 257 0 L 257 153.125 L 158 153.125 Z M 158 0 "/>
</clipPath>
</defs>
<g id="surface1">
<g clip-path="url(#clip1)" clip-rule="nonzero">
<path style=" stroke:none;fill-rule:nonzero;fill:rgb(13.912964%,21.037292%,42.446899%);fill-opacity:1;" d="M 112.242188 40.878906 C 119.589844 49.609375 124.023438 60.875 124.023438 73.175781 C 124.023438 100.910156 101.542969 123.382812 73.820312 123.382812 C 46.085938 123.382812 23.609375 100.910156 23.609375 73.175781 C 23.609375 45.828125 45.484375 23.582031 72.699219 22.988281 C 76.964844 22.988281 149.304688 23.003906 149.527344 23.003906 C 149.933594 23.003906 150.335938 23.011719 150.738281 23.023438 L 150.738281 0.0429688 C 150.335938 0.0351562 149.933594 0.03125 149.527344 0.03125 C 149.4375 0.03125 85.164062 0.015625 74.101562 0.015625 L 74.101562 0 C 74.007812 0 73.910156 0 73.820312 0 C 33.398438 0 0.632812 32.765625 0.632812 73.175781 C 0.632812 113.59375 33.398438 146.359375 73.820312 146.359375 C 114.230469 146.359375 146.996094 113.59375 146.996094 73.175781 C 146.996094 61.585938 144.296875 50.621094 139.492188 40.878906 L 112.242188 40.878906 "/>
</g>
<g clip-path="url(#clip2)" clip-rule="nonzero">
<path style=" stroke:none;fill-rule:nonzero;fill:rgb(13.912964%,21.037292%,42.446899%);fill-opacity:1;" d="M 294.074219 1.414062 L 294.078125 59.144531 L 256.582031 59.160156 L 256.582031 1.414062 L 233.617188 1.414062 L 233.621094 103.363281 L 256.582031 103.363281 L 256.582031 82.101562 L 294.085938 82.101562 L 294.089844 147.761719 L 317.03125 147.761719 L 317.03125 1.414062 L 294.074219 1.414062 "/>
</g>
<g clip-path="url(#clip3)" clip-rule="nonzero">
<path style=" stroke:none;fill-rule:nonzero;fill:rgb(13.912964%,21.037292%,42.446899%);fill-opacity:1;" d="M 207.046875 80.941406 L 203.886719 16.421875 C 189.625 5.441406 175.992188 0.320312 158.964844 0.0429688 L 158.964844 23.023438 C 167.253906 23.214844 175.019531 25.449219 181.832031 29.199219 L 184.0625 80.449219 C 184.324219 120.238281 216.332031 152.484375 256.023438 153.125 L 256.023438 130.152344 C 229.179688 129.515625 207.566406 107.808594 207.046875 80.941406 "/>
</g>
<path style=" stroke:none;fill-rule:nonzero;fill:rgb(13.912964%,21.037292%,42.446899%);fill-opacity:1;" d="M 83.722656 72.238281 C 86.132812 70.046875 87.648438 66.886719 87.648438 63.378906 C 87.648438 56.765625 82.296875 51.414062 75.6875 51.414062 C 69.082031 51.414062 63.730469 56.765625 63.730469 63.378906 C 63.730469 66.886719 65.242188 70.046875 67.652344 72.238281 L 60.390625 97.761719 L 90.992188 97.761719 L 83.722656 72.238281 "/>
</g>
</svg>
