<?xml version="1.0" encoding="UTF-8"?>
<svg id="Icons" xmlns="http://www.w3.org/2000/svg" viewBox="0 0 99.01 99">
  <path d="M70.39,50.75c11.66,0,21.15-9.49,21.15-21.15s-9.49-21.15-21.15-21.15-21.15,9.49-21.15,21.15c0,2.9.59,5.67,1.65,8.19l-15.91,8.53c-2.76-3.82-7.25-6.33-12.32-6.33-8.38,0-15.2,6.82-15.2,15.2s6.82,15.2,15.2,15.2c5.04,0,9.5-2.47,12.27-6.26l26.58,14.24c-.17.7-.27,1.42-.27,2.16,0,5.04,4.1,9.15,9.15,9.15s9.15-4.1,9.15-9.15-4.1-9.15-9.15-9.15c-2.87,0-5.43,1.33-7.1,3.4l-26.44-14.17c.65-1.69,1.02-3.51,1.02-5.43s-.36-3.68-.99-5.35l15.92-8.54c3.8,5.68,10.26,9.44,17.6,9.44ZM70.39,75.4c2.84,0,5.15,2.31,5.15,5.15s-2.31,5.15-5.15,5.15-5.15-2.31-5.15-5.15,2.31-5.15,5.15-5.15ZM22.66,66.4c-6.18,0-11.2-5.02-11.2-11.2s5.02-11.2,11.2-11.2,11.2,5.02,11.2,11.2-5.02,11.2-11.2,11.2ZM70.39,12.45c9.46,0,17.15,7.69,17.15,17.15s-7.69,17.15-17.15,17.15-17.15-7.69-17.15-17.15,7.69-17.15,17.15-17.15Z"/>
  <path d="M70.39,44.8c8.38,0,15.2-6.82,15.2-15.2s-6.82-15.2-15.2-15.2-15.2,6.82-15.2,15.2,6.82,15.2,15.2,15.2ZM70.39,18.4c6.18,0,11.2,5.02,11.2,11.2s-5.02,11.2-11.2,11.2-11.2-5.02-11.2-11.2,5.02-11.2,11.2-11.2Z"/>
  <path d="M70.39,38.75c5.04,0,9.15-4.1,9.15-9.15s-4.1-9.15-9.15-9.15-9.15,4.1-9.15,9.15,4.1,9.15,9.15,9.15ZM70.39,24.45c2.84,0,5.15,2.31,5.15,5.15s-2.31,5.15-5.15,5.15-5.15-2.31-5.15-5.15,2.31-5.15,5.15-5.15Z"/>
  <path d="M22.66,46.05c-5.04,0-9.15,4.1-9.15,9.15s4.1,9.15,9.15,9.15,9.15-4.1,9.15-9.15-4.1-9.15-9.15-9.15ZM22.66,60.34c-2.84,0-5.15-2.31-5.15-5.15s2.31-5.15,5.15-5.15,5.15,2.31,5.15,5.15-2.31,5.15-5.15,5.15Z"/>
</svg>