<?xml version="1.0" encoding="UTF-8"?>
<svg id="Icons" xmlns="http://www.w3.org/2000/svg" viewBox="0 0 99.01 99">
  <path d="M95.94,33.68L49.5,15.55,3.06,33.68l21.96,8.57v22.25l1.34.47c6.36,2.21,14.58,3.43,23.14,3.43s16.76-1.22,23.12-3.43l1.34-.47v-22.25l2.03-.79v38.4h4v-39.96l2.06-.8v40.76h4v-42.32l2.05-.8v43.12h4v-44.68l3.85-1.5ZM49.5,20.18l34.59,13.5-34.59,13.5-34.59-13.5,34.59-13.5ZM69.96,61.64c-5.75,1.79-12.95,2.76-20.46,2.76s-14.73-.98-20.48-2.77v-17.82l20.49,7.99,20.46-7.98v17.82Z"/>
</svg>