<svg xmlns="http://www.w3.org/2000/svg" viewBox="239.7 149.3 711.1 484.4">
  <defs>
    <style>
      .st0 {
      fill: #f0f0f1;
      }
    </style>
  </defs>
  <g>
    <rect class="st0" x="239.7" y="517.3" width="168.5" height="14.5"/>
    <rect class="st0" x="239.7" y="494.6" width="168.5" height="14.5"/>
    <rect class="st0" x="239.7" y="471.9" width="168.5" height="14.5"/>
  </g>
  <g>
    <rect class="st0" x="468.1" y="517.3" width="170.4" height="14.5"/>
    <rect class="st0" x="468.1" y="494.6" width="170.4" height="14.5"/>
    <rect class="st0" x="468.1" y="471.9" width="170.4" height="14.5"/>
  </g>
  <g>
    <rect class="st0" x="521.2" y="531.8" width="14.5" height="156.4"/>
    <rect class="st0" x="543.9" y="531.8" width="14.5" height="156.4"/>
    <rect class="st0" x="566.6" y="531.8" width="14.5" height="156.4"/>
  </g>
  <g>
    <rect class="st0" x="687.7" y="501" width="14.5" height="185.7"/>
    <rect class="st0" x="710.4" y="451.4" width="14.5" height="235.3"/>
    <rect class="st0" x="665.1" y="517.3" width="14.5" height="169.4"/>
  </g>
  <g>
    <rect class="st0" x="778" y="358.4" width="14.5" height="173.4"/>
    <rect class="st0" x="800.7" y="358.4" width="14.5" height="173.4"/>
    <rect class="st0" x="823.4" y="358.4" width="14.5" height="173.4"/>
  </g>
  <g>
    <rect class="st0" x="891" y="149.3" width="14.5" height="382.5"/>
    <rect class="st0" x="913.6" y="149.3" width="14.5" height="382.5"/>
    <rect class="st0" x="936.3" y="149.3" width="14.5" height="382.5"/>
  </g>
  <g>
    <rect class="st0" x="453.6" y="471.9" width="14.5" height="59.9"/>
    <rect class="st0" x="431" y="471.9" width="14.5" height="59.9"/>
    <rect class="st0" x="408.3" y="471.9" width="14.5" height="59.9"/>
  </g>
  <g>
    <rect class="st0" x="665.1" y="358.4" width="14.5" height="87"/>
    <rect class="st0" x="687.7" y="358.4" width="14.5" height="87"/>
    <rect class="st0" x="710.4" y="358.4" width="14.5" height="87"/>
  </g>
  <g>
    <path class="st0" d="M381.7,572.8c-22.6,0-41-18.4-41-41h14.5c0,14.6,11.9,26.5,26.5,26.5s26.5-11.9,26.5-26.5h14.5c0,22.6-18.4,41-41,41Z"/>
    <path class="st0" d="M381.7,618.2c-47.6,0-86.4-38.8-86.4-86.4h14.5c0,39.7,32.3,71.9,71.9,71.9s71.9-32.3,71.9-71.9h14.5c0,47.6-38.8,86.4-86.4,86.4Z"/>
    <path class="st0" d="M381.7,595.5c-35.1,0-63.7-28.6-63.7-63.7h14.5c0,27.1,22.1,49.2,49.2,49.2s49.2-22.1,49.2-49.2h14.5c0,35.1-28.6,63.7-63.7,63.7Z"/>
  </g>
  <g>
    <path class="st0" d="M751.5,317.4c-22.6,0-41,18.4-41,41h14.5c0-14.6,11.9-26.5,26.5-26.5s26.5,11.9,26.5,26.5h14.5c0-22.6-18.4-41-41-41Z"/>
    <path class="st0" d="M751.5,272c-47.6,0-86.4,38.8-86.4,86.4h14.5c0-39.7,32.3-71.9,71.9-71.9s71.9,32.3,71.9,71.9h14.5c0-47.6-38.8-86.4-86.4-86.4Z"/>
    <path class="st0" d="M751.5,294.7c-35.1,0-63.7,28.6-63.7,63.7h14.5c0-27.1,22.1-49.2,49.2-49.2s49.2,22.1,49.2,49.2h14.5c0-35.1-28.6-63.7-63.7-63.7Z"/>
  </g>
  <g>
    <path class="st0" d="M494.7,430.9c-22.6,0-41,18.4-41,41h14.5c0-14.6,11.9-26.5,26.5-26.5s26.5,11.9,26.5,26.5h14.5c0-22.6-18.4-41-41-41Z"/>
    <path class="st0" d="M494.7,385.5c-47.6,0-86.4,38.8-86.4,86.4h14.5c0-39.7,32.3-71.9,71.9-71.9s71.9,32.3,71.9,71.9h14.5c0-47.6-38.8-86.4-86.4-86.4Z"/>
    <path class="st0" d="M494.7,408.2c-35.1,0-63.7,28.6-63.7,63.7h14.5c0-27.1,22.1-49.2,49.2-49.2s49.2,22.1,49.2,49.2h14.5c0-35.1-28.6-63.7-63.7-63.7Z"/>
  </g>
  <g>
    <path class="st0" d="M864.4,572.8c22.6,0,41-18.4,41-41h-14.5c0,14.6-11.9,26.5-26.5,26.5s-26.5-11.9-26.5-26.5h-14.5c0,22.6,18.4,41,41,41Z"/>
    <path class="st0" d="M864.4,618.2c47.6,0,86.4-38.8,86.4-86.4h-14.5c0,39.7-32.3,71.9-71.9,71.9-39.7,0-71.9-32.3-71.9-71.9h-14.5c0,47.6,38.8,86.4,86.4,86.4Z"/>
    <path class="st0" d="M864.4,595.5c35.1,0,63.7-28.6,63.7-63.7h-14.5c0,27.1-22.1,49.2-49.2,49.2s-49.2-22.1-49.2-49.2h-14.5c0,35.1,28.6,63.7,63.7,63.7Z"/>
  </g>
  <g>
    <path class="st0" d="M638.5,517.3h0v14.5h0c47.6,0,86.4-38.8,86.4-86.4h-14.5c0,39.7-32.3,71.9-71.9,71.9Z"/>
    <path class="st0" d="M638.5,471.9h0v14.5h0c22.6,0,41-18.4,41-41h-14.5c0,14.6-11.9,26.5-26.5,26.5Z"/>
    <path class="st0" d="M638.5,494.6h0v14.5h0c35.1,0,63.7-28.6,63.7-63.7h-14.5c0,27.1-22.1,49.2-49.2,49.2Z"/>
  </g>
</svg>