<?xml version="1.0" encoding="UTF-8"?>
<svg id="Icons" xmlns="http://www.w3.org/2000/svg" viewBox="0 0 99.01 99">
  <rect x="46.04" y="23.59" width="4" height="25.8"/>
  <rect x="39.98" y="33.46" width="4" height="29.33"/>
  <rect x="52.09" y="33.2" width="4" height="21.03"/>
  <path d="M74.68,15.34H21.39c-4.38,0-7.94,3.56-7.94,7.94v38.83c0,4.38,3.56,7.94,7.94,7.94h.69l-.13,13.99,28.02-13.99h24.7c4.38,0,7.94-3.56,7.94-7.94V23.28c0-4.38-3.56-7.94-7.94-7.94ZM78.62,62.11c0,2.17-1.77,3.94-3.94,3.94h-25.65l-23.02,11.5.11-11.5h-4.73c-2.17,0-3.94-1.77-3.94-3.94V23.28c0-2.17,1.77-3.94,3.94-3.94h53.29c2.17,0,3.94,1.77,3.94,3.94v38.83Z"/>
</svg>