<?xml version="1.0" encoding="UTF-8"?>
<svg id="Icons" xmlns="http://www.w3.org/2000/svg" viewBox="0 0 99.01 99">
  <rect x="26.4" y="75.5" width="46.22" height="4"/>
  <rect x="26.4" y="81.55" width="46.22" height="4"/>
  <rect x="26.4" y="69.44" width="46.22" height="4"/>
  <path d="M72.86,22.06c-8.12-1.02-15.75-4.32-22.08-9.55l-1.27-1.05-1.27,1.05c-6.33,5.23-13.97,8.53-22.08,9.55l-1.75.22v1.76c0,16.76,9.27,31.93,24.19,39.6l.91.47.91-.47c14.93-7.67,24.2-22.84,24.2-39.6v-1.76l-1.75-.22ZM49.5,59.6c-12.54-6.84-20.47-19.61-21.07-33.83,7.67-1.26,14.89-4.4,21.07-9.16,6.18,4.75,13.4,7.89,21.07,9.16-.6,14.22-8.53,26.99-21.08,33.83Z"/>
  <polygon points="39.71 34.74 36.88 37.57 46.35 47.04 62.13 31.26 59.3 28.44 46.35 41.39 39.71 34.74"/>
</svg>