<svg xmlns="http://www.w3.org/2000/svg" viewBox="71.73 61.02 372.11 172.81">
  <path d="M321.36,61.02h-14.49c0,27.15-22.08,49.23-49.23,49.23v14.49c35.13,0,63.72-28.58,63.72-63.72Z"/>
  <path d="M298.68,61.02h-14.49c0,14.64-11.91,26.54-26.54,26.54v14.49c22.62,0,41.03-18.41,41.03-41.03Z"/>
  <path d="M158.14,106.4c-22.62,0-41.03,18.41-41.03,41.03s18.41,41.03,41.03,41.03,41.03-18.41,41.03-41.03-18.41-41.03-41.03-41.03ZM158.14,173.97c-14.64,0-26.54-11.91-26.54-26.54s11.91-26.54,26.54-26.54,26.54,11.91,26.54,26.54-11.91,26.54-26.54,26.54Z"/>
  <path d="M158.14,83.71c-35.13,0-63.72,28.58-63.72,63.72s28.58,63.72,63.72,63.72,63.72-28.58,63.72-63.72-28.58-63.72-63.72-63.72ZM158.14,196.66c-27.15,0-49.23-22.08-49.23-49.23s22.08-49.23,49.23-49.23,49.23,22.08,49.23,49.23-22.08,49.23-49.23,49.23Z"/>
  <path d="M158.14,61.02c-47.64,0-86.41,38.76-86.41,86.41s38.76,86.4,86.41,86.4,86.41-38.76,86.41-86.4-38.76-86.41-86.41-86.41ZM158.14,219.35c-39.66,0-71.92-32.26-71.92-71.92s32.26-71.92,71.92-71.92,71.92,32.26,71.92,71.92-32.26,71.92-71.92,71.92Z"/>
  <path d="M379.71,147.43c0,35.13,28.58,63.72,63.72,63.72v-14.49c-27.15,0-49.23-22.08-49.23-49.23s22.08-49.23,49.23-49.23v-14.49c-35.13,0-63.72,28.58-63.72,63.72Z"/>
  <path d="M402.4,147.43c0,22.62,18.41,41.03,41.03,41.03v-14.49c-14.64,0-26.54-11.91-26.54-26.54s11.91-26.54,26.54-26.54v-14.49c-22.62,0-41.03,18.41-41.03,41.03Z"/>
  <path d="M329.57,61.02c0,39.66-32.26,71.92-71.92,71.92v14.49c9.26,0,18.18-1.47,26.54-4.18v4.18c0,14.64-11.91,26.54-26.54,26.54v14.49c22.62,0,41.03-18.41,41.03-41.03v-10.38c2.83-1.54,5.57-3.23,8.2-5.06v15.44c0,27.15-22.08,49.23-49.23,49.23v14.49c35.13,0,63.72-28.58,63.72-63.72v-28.11c2.99-3.27,5.73-6.77,8.2-10.46v38.57c0,39.66-32.26,71.92-71.92,71.92v14.49c47.64,0,86.41-38.76,86.41-86.41V60.94h-14.49v.08Z"/>
  <path d="M357.03,147.43c0,47.64,38.76,86.4,86.41,86.4v-14.49c-39.66,0-71.92-32.26-71.92-71.92s32.26-71.92,71.92-71.92v-14.49c-47.64,0-86.41,38.76-86.41,86.41Z"/>
</svg>