<svg id="Layer_1" xmlns="http://www.w3.org/2000/svg" viewBox="0 0 90 12.2">
    <defs>
        <style>
            .cls-1 {
            fill: #a00;
            }

            .cls-2 {
            fill: #333;
            }
        </style>
    </defs>
    <path class="cls-2" d="M23.2,0c-1,0-3.19.16-4.75,2.38-1.1,1.54-1.18,3.12-1.18,3.82,0,.81.14,3.09,2.05,4.69,1.12.95,2.41,1.31,3.87,1.31,2.54,0,3.99-1.16,4.67-1.94.27-.32.49-.62.89-1.36l-3.09-1.49c-.11.34-.18.49-.26.65-.23.39-.81,1.23-2.05,1.23-.28,0-.79-.02-1.36-.45-.55-.44-1.05-1.28-1.05-2.85,0-.29-.05-1.94,1.08-2.78.23-.16.65-.4,1.31-.4,1.46-.02,2.02,1.16,2.21,1.55.05.11.11.23.16.34l3.03-1.5c-.24-.44-.4-.71-.74-1.1-.63-.73-2.18-2.09-4.79-2.09h0ZM5.62.42v6.78c0,1.2.08,1.67.29,2.23.53,1.41,1.7,1.97,2.18,2.18,1.13.5,2.26.54,2.68.54,2.04,0,4.11-.79,4.9-2.87.26-.68.36-1.29.36-2.02V.42h-3.64v7.13c0,.34,0,.6-.11.89-.32.86-1.23.91-1.47.91-.26,0-1.16-.05-1.46-.92-.13-.36-.11-.76-.11-.88V.42h-3.62ZM29.77.42v11.42h8.02v-2.88h-4.42V.42h-3.61ZM1.95.46s-.02.03-.02.03h0s0,.02,0,.02c0,0,0,.01,0,.01s-.01,0-.01,0h0s-.04.05-.07.08c0,0,0,0-.01,0h-.01s0,0,0,0v.02s0,0,0,0h0s0,0,0,.02,0,.01,0,.02h-.01s0,0,0,0v.02s0,0,0,0c0,0,0,0,0,0,0,0,.01,0,.01,0v.21s-.02,0-.02.02v.02s0,.01,0,.01h-.03s-.01,0-.01,0v.04s0,0,0,0c.02,0,.03,0,.03.02v.02s-.01.01-.02.02c-.02,0-.07.02-.08.06-.09.04-.25.13-.36.3-.15.2-.14.48-.14.52,0,0,0,.01-.01.01h-.02s0,0,0,0v.03s0,0,0,0h-.03s0,0,0,0v.03s0,0,0,0h-.03s0,0,0,0v.03s0,0,0,0c0,0,.03.01.03.03,0,.03.02.03.03.03v.12s-.02.04-.03.04c0,0,0,0,0,0v.12l.85-.19h0l.85.19v-.12s0,0,0,0c-.01,0-.03-.01-.03-.04v-.12s.02,0,.02-.03c0-.02.02-.03.03-.03,0,0,0,0,0,0v-.03s0,0,0,0h-.03s0,0,0,0v-.03s0,0,0,0h-.02s0,0,0,0v-.03s0,0,0,0h-.02s-.01,0-.01-.01c0-.04.01-.32-.14-.52-.12-.17-.27-.26-.36-.3,0-.04-.06-.05-.08-.06-.01,0-.02,0-.02-.02v-.02s.01-.02.03-.02c0,0,0,0,0,0v-.04s0,0-.02,0h-.03s-.01,0-.01-.01v-.02s0-.02-.01-.02v-.21s0,0,.01,0c0,0,0,0,0,0v-.02s0,0,0,0h0s0,0,0-.02c0,0,0-.01,0-.02h0s0,0,0,0v-.02s0,0,0,0h0s0,0-.01,0c-.04-.03-.07-.07-.07-.07,0,0,0,0,0,0,0,0,0,0-.02,0s0-.01,0-.01c0,0,0,0,0,0h0s-.02-.05-.02-.05h0ZM1.95,2.42S.1,2.82.1,2.82c0,0,0,.01,0,.01l.03.09h0s.03,0,.05.02l.03.15s0,0,.01,0h.08v.05s0,0,0,0h0s0,0,0,.01c0,0,0,.04.03.07,0,0,0,.01,0,.01h0s0,0,0,0c0,0,0,.02,0,.02v.02s0,0,0,0h0s0,0,0,0v1.05s-.01.01-.02.01c0,0,0,0,0,0v.02s0,0,0,0c0,0,0,0,0,0h-.02s0,0,0,0v.13h-.15v.25h-.15v.25h3.91v-.25h-.15v-.25h-.15v-.13s0,0,0,0h-.01s0,0,0,0c0,0,0,0,0,0v-.02s0,0,0,0c0,0,0,0-.01-.01v-1.05s0,0,0,0h0s0,0,0,0v-.02s0-.02,0-.02c0,0,0,0,0,0h0s0,0,0-.01c.03-.02.03-.06.03-.06,0,0,0-.02,0-.02h.01s0,0,0,0v-.05h.08s.01,0,.01,0l.02-.16s.05-.02.05-.02h0l.02-.09s0,0,0-.01l-1.86-.4ZM.57,3.11h.32v.05s0,0,0,0h.01s0,0,0,.01c0,0,0,.04.03.07,0,0,0,.01,0,.01h0s0,0,0,0c0,0,0,.02,0,.02v.02s0,0,0,0h0v1.05s-.01.01-.01.01,0,0,0,0v.02s0,0,0,0c0,0,0,0,0,0h-.01s0,0,0,0v.02h-.33v-.02s0,0,0,0h-.02s0,0,0,0v-.02s0,0,0,0c0,0-.01,0-.02-.01v-1.05s0,0,0,0h0s0,0,0,0v-.02s0-.02,0-.02c0,0,0,0,0,0h0s0,0,0-.01c.03-.02.03-.06.03-.06,0,0,0-.02,0-.02h.01s0,0,0,0v-.05ZM1.18,3.11h.32v.05s0,0,0,0h0s0,0,0,.01c0,0,0,.04.03.07,0,0,0,.01,0,.01h0s0,0,0,0c0,0,0,.02,0,.02v.02s0,0,0,0h0s0,0,0,0v1.05h-.01s0,.02,0,.02v.02s0,0,0,0c0,0,0,0,0,0h-.01s0,0,0,0v.02h-.33v-.02s0,0,0,0h-.02s0,0,0,0c0,0,0,0,0,0v-.02s0,0,0,0c0,0-.01,0-.02-.01v-1.05s0,0,0,0h0s0,0,0,0v-.02s0-.02,0-.02c0,0,0,0,0,0h0s0,0,0-.01c.03-.02.03-.06.03-.06,0,0,0-.02,0-.02h.01s0,0,0,0v-.05ZM1.8,3.11h.32v.05s0,0,0,0h.01s0,0,0,.01c0,0,0,.04.03.07,0,0,0,.01,0,.01h0s0,0,0,0c0,0,0,.02,0,.02v.02s0,0,0,0h0s0,0,0,0v1.05s-.01.01-.02.01c0,0,0,0,0,0v.02s0,0,0,0c0,0,0,0,0,0h-.02s0,0,0,0v.02h-.33v-.02s0,0,0,0h-.01s0,0,0,0,0,0,0,0v-.02s0,0,0,0c0,0-.01,0-.02-.01v-1.05s0,0,0,0h0s0,0,0,0v-.02s0-.02,0-.02c0,0,0,0,0,0h0s0,0,0-.01c.03-.02.03-.06.03-.06,0,0,0-.02,0-.02h.02s0,0,0,0v-.05ZM2.4,3.11h.32v.05s0,0,0,0h.01s0,0,0,.01c0,0,0,.04.03.07,0,0,0,.01,0,.01h0s0,0,0,0c0,0,0,.02,0,.02v.02s0,0,0,0h0s0,0,0,0v1.05s-.01.01-.02.01,0,0,0,0v.02s0,0,0,0c0,0,0,0,0,0h-.02s0,0,0,0v.02h-.33v-.02s0,0,0,0h-.01s0,0,0,0c0,0,0,0,0,0v-.02s0,0,0,0c0,0-.01,0-.02-.01v-1.05h0s0,0,0,0v-.02s0-.02,0-.02c0,0,0,0,0,0h0s0,0,0-.01c.03-.02.03-.06.03-.06,0,0,0-.02,0-.02h.02s0,0,0,0v-.05ZM3.01,3.11h.32v.05s0,0,0,0h.02s0,0,0,.01c0,0,0,.04.03.07,0,0,0,.01,0,.01h0s0,0,0,0c0,0,0,.02,0,.02v.02s0,0,0,0c0,0,0,0,0,0v1.05s-.01.01-.01.01c0,0,0,0,0,0v.02s0,0,0,0,0,0,0,0h-.01s0,0,0,0v.02h-.33v-.02s0,0,0,0h-.02s0,0,0,0c0,0,0,0,0,0v-.02s0,0,0,0c0,0-.01,0-.02-.01v-1.05s0,0,0,0h0s0,0,0,0v-.02s0-.02,0-.02c0,0,0,0,0,0h0s0,0,0-.01c.03-.02.03-.06.03-.06,0,0,0-.02,0-.02h.01s0,0,0,0v-.05ZM3.01,3.11"></path>
    <path class="cls-1" d="M74.17.13c-.6,0-1.82.09-2.84.94-.68.57-1.08,1.33-1.08,2.23,0,.68.18,1.71,1.55,2.46.76.42,1.68.62,2.51.79l.99.21c.53.11,1.13.24,1.59.6.26.21.58.53.58,1.29,0,1.57-1.31,2.02-1.8,2.15-.45.13-.89.13-1.05.13-1.34,0-2.1-.49-2.51-.91-.73-.76-.76-1.71-.78-2.05l-1.63.21c.03.36.11,1.39.79,2.3.24.32.56.63.92.86,1.2.78,2.75.79,3.12.79,1.94,0,2.97-.61,3.61-1.23.89-.87.95-1.89.95-2.35,0-.81-.26-1.31-.42-1.59-.7-1.16-2.09-1.47-2.44-1.55-.29-.08-.6-.16-.89-.23l-1.26-.31c-.66-.16-1.55-.34-1.99-.94-.24-.32-.28-.68-.28-.84,0-.37.15-.76.39-1.03.5-.6,1.49-.76,2.21-.76,1.88,0,2.61.94,2.83,1.75.06.23.1.45.11.68l1.54-.1c-.1-.58-.22-1.12-.53-1.63-.13-.23-.39-.61-.92-1.02-.89-.68-1.96-.86-3.06-.86-.06,0-.13,0-.22,0h0ZM85.07.13c-.6,0-1.82.09-2.84.94-.68.57-1.08,1.33-1.08,2.23,0,.68.18,1.71,1.55,2.46.76.42,1.68.62,2.51.79l.98.21c.53.11,1.13.24,1.59.6.26.21.58.53.58,1.29,0,1.57-1.31,2.02-1.8,2.15-.45.13-.89.13-1.05.13-1.34,0-2.1-.49-2.51-.91-.73-.76-.76-1.71-.78-2.05l-1.63.21c.03.36.11,1.39.79,2.3.24.32.57.63.92.86,1.2.78,2.75.79,3.12.79,1.94,0,2.98-.61,3.61-1.23.89-.87.96-1.89.96-2.35,0-.81-.26-1.31-.42-1.59-.7-1.16-2.09-1.47-2.44-1.55-.29-.08-.6-.16-.89-.23l-1.26-.31c-.66-.16-1.55-.34-1.99-.94-.24-.32-.27-.68-.27-.84,0-.37.14-.76.39-1.03.5-.6,1.49-.76,2.22-.76,1.88,0,2.61.94,2.83,1.75.06.23.1.45.11.68l1.54-.1c-.1-.58-.23-1.12-.53-1.63-.13-.23-.39-.61-.92-1.02-.89-.68-1.96-.86-3.06-.86-.06,0-.13,0-.22,0h0ZM54.4.41c-.18,0-.37,0-.54,0h-4.25v11.42h1.49v-4.85h2.94l3.12,4.85h1.81l-3.2-4.95c.61-.11.89-.22,1.16-.37,1.46-.74,1.52-2.3,1.52-2.77,0-1.13-.39-1.81-.7-2.18-.49-.58-1.23-1.08-2.82-1.15-.18,0-.36,0-.54,0h0ZM39.36.42v11.42h1.47v-4.84h3.3c.87,0,1.31-.03,1.72-.14,1.49-.4,2.21-1.76,2.21-3.22,0-.44-.08-1.93-1.36-2.73-.76-.49-1.52-.49-2.41-.49h-4.93ZM60.52.42v11.42h8.05v-1.32h-6.6v-3.9h5.57v-1.33h-5.57V1.76h6.41V.42h-7.86ZM51.09,1.68h2.96c.68,0,1.39-.03,1.99.32.87.53.91,1.42.91,1.75,0,.44-.1.83-.36,1.18-.58.79-1.6.78-2.46.78h-3.04V1.68ZM40.83,1.73h3.53c.34,0,.58,0,.92.08.53.15.97.5,1.17,1.04.11.32.11.65.11.76,0,.89-.39,1.72-1.31,1.96-.4.1-.81.08-1.23.08h-3.19V1.73ZM40.83,1.73"></path>
</svg>