<svg xmlns="http://www.w3.org/2000/svg" viewBox="0 0 1400 4000">
  <defs>
    <style>
      .ln { stroke: #dcdcdc; stroke-width: 14.5; fill: none; }
    </style>
  </defs>

  <!-- Route 1: Left-side pokes (enter/exit left edge) -->

  <!-- Route 1, Segment 1: y=100, x_vert=300, y_range=100-900 -->
  <path class="ln" d="M 0,122.7 H 220 A 57.3,57.3 0 0,1 277.3,180 V 820 A 57.3,57.3 0 0,1 220,877.3 H 0"/>
  <path class="ln" d="M 0,100 H 220 A 80,80 0 0,1 300,180 V 820 A 80,80 0 0,1 220,900 H 0"/>
  <path class="ln" d="M 0,77.3 H 220 A 102.7,102.7 0 0,1 322.7,180 V 820 A 102.7,102.7 0 0,1 220,922.7 H 0"/>

  <!-- Route 1, Segment 2: y=1600, x_vert=350, y_range=1600-2500 -->
  <path class="ln" d="M 0,1622.7 H 270 A 57.3,57.3 0 0,1 327.3,1680 V 2420 A 57.3,57.3 0 0,1 270,2477.3 H 0"/>
  <path class="ln" d="M 0,1600 H 270 A 80,80 0 0,1 350,1680 V 2420 A 80,80 0 0,1 270,2500 H 0"/>
  <path class="ln" d="M 0,1577.3 H 270 A 102.7,102.7 0 0,1 372.7,1680 V 2420 A 102.7,102.7 0 0,1 270,2522.7 H 0"/>

  <!-- Route 1, Segment 3: y=3300, x_vert=280, y_range=3300-3900 -->
  <path class="ln" d="M 0,3322.7 H 200 A 57.3,57.3 0 0,1 257.3,3380 V 3820 A 57.3,57.3 0 0,1 200,3877.3 H 0"/>
  <path class="ln" d="M 0,3300 H 200 A 80,80 0 0,1 280,3380 V 3820 A 80,80 0 0,1 200,3900 H 0"/>
  <path class="ln" d="M 0,3277.3 H 200 A 102.7,102.7 0 0,1 302.7,3380 V 3820 A 102.7,102.7 0 0,1 200,3922.7 H 0"/>

  <!-- Route 2: Right-side pokes (enter/exit right edge) -->

  <!-- Route 2, Segment 1: y=500, x_vert=1000, y_range=500-1100 -->
  <path class="ln" d="M 1400,522.7 H 1080 A 57.3,57.3 0 0,0 1022.7,580 V 1020 A 57.3,57.3 0 0,0 1080,1077.3 H 1400"/>
  <path class="ln" d="M 1400,500 H 1080 A 80,80 0 0,0 1000,580 V 1020 A 80,80 0 0,0 1080,1100 H 1400"/>
  <path class="ln" d="M 1400,477.3 H 1080 A 102.7,102.7 0 0,0 977.3,580 V 1020 A 102.7,102.7 0 0,0 1080,1122.7 H 1400"/>

  <!-- Route 2, Segment 2: y=2000, x_vert=1050, y_range=2000-2700 -->
  <path class="ln" d="M 1400,2022.7 H 1130 A 57.3,57.3 0 0,0 1072.7,2080 V 2620 A 57.3,57.3 0 0,0 1130,2677.3 H 1400"/>
  <path class="ln" d="M 1400,2000 H 1130 A 80,80 0 0,0 1050,2080 V 2620 A 80,80 0 0,0 1130,2700 H 1400"/>
  <path class="ln" d="M 1400,1977.3 H 1130 A 102.7,102.7 0 0,0 1027.3,2080 V 2620 A 102.7,102.7 0 0,0 1130,2722.7 H 1400"/>

  <!-- Route 2, Segment 3: y=3200, x_vert=1000, y_range=3200-3700 -->
  <path class="ln" d="M 1400,3222.7 H 1080 A 57.3,57.3 0 0,0 1022.7,3280 V 3620 A 57.3,57.3 0 0,0 1080,3677.3 H 1400"/>
  <path class="ln" d="M 1400,3200 H 1080 A 80,80 0 0,0 1000,3280 V 3620 A 80,80 0 0,0 1080,3700 H 1400"/>
  <path class="ln" d="M 1400,3177.3 H 1080 A 102.7,102.7 0 0,0 977.3,3280 V 3620 A 102.7,102.7 0 0,0 1080,3722.7 H 1400"/>

  <!-- Route 3: Center tileable zigzag (enters top, jogs right, exits bottom at same x) -->
  <path class="ln" d="M 527.3,0 V 1720 A 102.7,102.7 0 0,1 630,1822.7 H 670 A 57.3,57.3 0 0,1 727.3,1880 V 2120 A 57.3,57.3 0 0,1 670,2177.3 H 630 A 102.7,102.7 0 0,0 527.3,2280 V 4000"/>
  <path class="ln" d="M 550,0 V 1720 A 80,80 0 0,1 630,1800 H 670 A 80,80 0 0,1 750,1880 V 2120 A 80,80 0 0,1 670,2200 H 630 A 80,80 0 0,0 550,2280 V 4000"/>
  <path class="ln" d="M 572.7,0 V 1720 A 57.3,57.3 0 0,1 630,1777.3 H 670 A 102.7,102.7 0 0,1 772.7,1880 V 2120 A 102.7,102.7 0 0,1 670,2222.7 H 630 A 57.3,57.3 0 0,0 572.7,2280 V 4000"/>
</svg>
